<svg xmlns="http://www.w3.org/2000/svg" width="12.522" height="14.8" viewBox="0 0 12.522 14.8"><defs><style>.a{fill:#fff;}</style></defs><g transform="translate(-347.739 -229)"><path class="a" d="M360.07,229.489a1.109,1.109,0,0,0-.514-.4,1.074,1.074,0,0,0-.43-.088H348.874a1.074,1.074,0,0,0-.43.088,1.1,1.1,0,0,0-.514.4,1.041,1.041,0,0,0-.191.607v12.609a1.036,1.036,0,0,0,.191.606,1.1,1.1,0,0,0,.514.4,1.074,1.074,0,0,0,.43.088,1.166,1.166,0,0,0,.812-.322L354,239.33l4.314,4.148a1.166,1.166,0,0,0,.812.313,1.085,1.085,0,0,0,.43-.079,1.1,1.1,0,0,0,.514-.4,1.036,1.036,0,0,0,.191-.606V230.1A1.041,1.041,0,0,0,360.07,229.489ZM359.009,242.4l-4.138-3.971-.4-.383a.681.681,0,0,0-.94,0l-.4.383-4.137,3.971V231.432a1.179,1.179,0,0,1,1.179-1.18h7.668a1.17,1.17,0,0,1,1.17,1.17V242.4Z"/><path class="a" d="M348.665,230.932l1.722-1.26,8.57.357.311,12.755-1.45-.727-3.617-3.764-2.767,2.312-2.549,2.179-.22-6.2Z"/></g></svg>