<svg xmlns="http://www.w3.org/2000/svg" width="15.813" height="18.692" viewBox="0 0 15.813 18.692"><defs><style>.a{fill:#fff;}</style></defs><g transform="translate(-351.158 -67)"><path class="a" d="M366.73,67.618a1.4,1.4,0,0,0-.648-.507,1.372,1.372,0,0,0-.544-.111H352.591a1.368,1.368,0,0,0-.544.111,1.39,1.39,0,0,0-.648.507,1.307,1.307,0,0,0-.241.766V84.308a1.309,1.309,0,0,0,.241.766,1.39,1.39,0,0,0,.648.507,1.368,1.368,0,0,0,.544.111,1.47,1.47,0,0,0,1.025-.408l5.448-5.238,5.449,5.238a1.47,1.47,0,0,0,1.025.4,1.439,1.439,0,0,0,1.192-.605,1.309,1.309,0,0,0,.241-.766V68.384A1.314,1.314,0,0,0,366.73,67.618Zm-1.34,16.307-5.226-5.016-.506-.483a.86.86,0,0,0-1.187,0l-.506.483-5.226,5.016V70.071a1.49,1.49,0,0,1,1.49-1.49h9.684a1.478,1.478,0,0,1,1.477,1.477V83.925Z"/></g></svg>